<svg width="20" height="6" viewBox="0 0 20 6" fill="none" xmlns="http://www.w3.org/2000/svg">
<path fill-rule="evenodd" clip-rule="evenodd" d="M4.71118 5.05002C5.81575 5.05002 6.71118 4.18443 6.71118 3.11668C6.71118 2.04893 5.81575 1.18335 4.71118 1.18335C3.60661 1.18335 2.71118 2.04893 2.71118 3.11668C2.71118 4.18443 3.60661 5.05002 4.71118 5.05002Z" fill="white"/>
<path d="M6.21118 3.11668C6.21118 3.89245 5.55572 4.55002 4.71118 4.55002V5.55002C6.07578 5.55002 7.21118 4.47642 7.21118 3.11668H6.21118ZM4.71118 1.68335C5.55572 1.68335 6.21118 2.34092 6.21118 3.11668H7.21118C7.21118 1.75695 6.07578 0.68335 4.71118 0.68335V1.68335ZM3.21118 3.11668C3.21118 2.34092 3.86664 1.68335 4.71118 1.68335V0.68335C3.34658 0.68335 2.21118 1.75695 2.21118 3.11668H3.21118ZM4.71118 4.55002C3.86664 4.55002 3.21118 3.89245 3.21118 3.11668H2.21118C2.21118 4.47642 3.34658 5.55002 4.71118 5.55002V4.55002Z" fill="black"/>
<path fill-rule="evenodd" clip-rule="evenodd" d="M10.2861 5.05002C11.3907 5.05002 12.2861 4.18443 12.2861 3.11668C12.2861 2.04893 11.3907 1.18335 10.2861 1.18335C9.18156 1.18335 8.28613 2.04893 8.28613 3.11668C8.28613 4.18443 9.18156 5.05002 10.2861 5.05002Z" fill="white"/>
<path d="M11.7861 3.11668C11.7861 3.89245 11.1307 4.55002 10.2861 4.55002V5.55002C11.6507 5.55002 12.7861 4.47642 12.7861 3.11668H11.7861ZM10.2861 1.68335C11.1307 1.68335 11.7861 2.34092 11.7861 3.11668H12.7861C12.7861 1.75695 11.6507 0.68335 10.2861 0.68335V1.68335ZM8.78613 3.11668C8.78613 2.34092 9.44159 1.68335 10.2861 1.68335V0.68335C8.92153 0.68335 7.78613 1.75695 7.78613 3.11668H8.78613ZM10.2861 4.55002C9.44159 4.55002 8.78613 3.89245 8.78613 3.11668H7.78613C7.78613 4.47642 8.92153 5.55002 10.2861 5.55002V4.55002Z" fill="black"/>
<path fill-rule="evenodd" clip-rule="evenodd" d="M15.8612 5.05002C16.9658 5.05002 17.8612 4.18443 17.8612 3.11668C17.8612 2.04893 16.9658 1.18335 15.8612 1.18335C14.7566 1.18335 13.8612 2.04893 13.8612 3.11668C13.8612 4.18443 14.7566 5.05002 15.8612 5.05002Z" fill="white"/>
<path d="M17.3612 3.11668C17.3612 3.89245 16.7057 4.55002 15.8612 4.55002V5.55002C17.2258 5.55002 18.3612 4.47642 18.3612 3.11668H17.3612ZM15.8612 1.68335C16.7057 1.68335 17.3612 2.34092 17.3612 3.11668H18.3612C18.3612 1.75695 17.2258 0.68335 15.8612 0.68335V1.68335ZM14.3612 3.11668C14.3612 2.34092 15.0167 1.68335 15.8612 1.68335V0.68335C14.4966 0.68335 13.3612 1.75695 13.3612 3.11668H14.3612ZM15.8612 4.55002C15.0167 4.55002 14.3612 3.89245 14.3612 3.11668H13.3612C13.3612 4.47642 14.4966 5.55002 15.8612 5.55002V4.55002Z" fill="black"/>
</svg>
